<?xml version="1.0" standalone="no"?><svg xmlns="http://www.w3.org/2000/svg" viewBox="0 0 1440 320"><path fill="#0099ff" fill-opacity="1" d="M0,96L24,122.7C48,149,96,203,144,234.7C192,267,240,277,288,240C336,203,384,117,432,80C480,43,528,53,576,48C624,43,672,21,720,58.7C768,96,816,192,864,229.3C912,267,960,245,1008,197.3C1056,149,1104,75,1152,48C1200,21,1248,43,1296,53.3C1344,64,1392,64,1416,64L1440,64L1440,0L1416,0C1392,0,1344,0,1296,0C1248,0,1200,0,1152,0C1104,0,1056,0,1008,0C960,0,912,0,864,0C816,0,768,0,720,0C672,0,624,0,576,0C528,0,480,0,432,0C384,0,336,0,288,0C240,0,192,0,144,0C96,0,48,0,24,0L0,0Z"></path></svg>